# xmcd CD Database Entry
#
# Track frame offsets:
# 150
# 19787
# 40702
# 55232
# 73371
# 98214
# 122367
# 140933
# 157483
# 181552
# 206738
#
# Disc length: 3475 seconds
#
# Revision: 1
# Processed by: cddbd v1.4PL0 Copyright (c) Steve Scherf et al.
# Submitted via: tcd 2.0b
#
DISCID=a10d910b
DTITLE=Maxwell - Now
DYEAR=1900
DGENRE=
TTITLE0=Temporary nite
TTITLE1=No one
TTITLE2=Was my girl
TTITLE3=Get to know ya
TTITLE4=Lifetime
TTITLE5=Now at the party
TTITLE6=Changed
TTITLE7=For lovers only
TTITLE8=Silently
TTITLE9=Symptom unknown
TTITLE10=This womans work
EXTD=
EXTT0=
EXTT1=
EXTT2=
EXTT3=
EXTT4=
EXTT5=
EXTT6=
EXTT7=
EXTT8=
EXTT9=
EXTT10=
PLAYORDER=
